<mxfile host="app.diagrams.net" modified="2022-07-10T06:46:19.614Z" agent="5.0 (Macintosh; Intel Mac OS X 10_15_7) AppleWebKit/537.36 (KHTML, like Gecko) Chrome/103.0.0.0 Safari/537.36" etag="07lazhOk0OpzAnvJTLLA" version="20.0.4" type="github">
  <diagram id="0Dd2cMO2O7rVlXc_mWoZ" name="Page-1">
    <mxGraphModel dx="1298" dy="764" grid="1" gridSize="10" guides="1" tooltips="1" connect="1" arrows="1" fold="1" page="1" pageScale="1" pageWidth="850" pageHeight="1100" math="0" shadow="0">
      <root>
        <mxCell id="0" />
        <mxCell id="1" parent="0" />
        <mxCell id="BA62NRj0ivqC6DWOesn4-1" value="&lt;h1&gt;FR&lt;/h1&gt;&lt;p&gt;&lt;font style=&quot;font-size: 18px;&quot;&gt;- Send notification&lt;/font&gt;&lt;/p&gt;&lt;p&gt;&lt;font style=&quot;font-size: 18px;&quot;&gt;- Medium Extensible&lt;/font&gt;&lt;/p&gt;&lt;p&gt;&lt;font style=&quot;font-size: 18px;&quot;&gt;- Priority&lt;/font&gt;&lt;/p&gt;&lt;p&gt;&lt;font style=&quot;font-size: 18px;&quot;&gt;- Scheduled notification&lt;/font&gt;&lt;/p&gt;" style="text;html=1;strokeColor=#666666;fillColor=#f5f5f5;spacing=5;spacingTop=-20;whiteSpace=wrap;overflow=hidden;rounded=0;fontColor=#333333;" parent="1" vertex="1">
          <mxGeometry x="40" y="40" width="330" height="200" as="geometry" />
        </mxCell>
        <mxCell id="BA62NRj0ivqC6DWOesn4-2" value="&lt;h1&gt;NFR&lt;/h1&gt;&lt;p&gt;&lt;font style=&quot;font-size: 18px;&quot;&gt;- High reliability&lt;/font&gt;&lt;/p&gt;&lt;p&gt;&lt;font style=&quot;font-size: 18px;&quot;&gt;- High availability&lt;/font&gt;&lt;/p&gt;&lt;p&gt;&lt;font style=&quot;font-size: 18px;&quot;&gt;- Monitoring and alerting&lt;/font&gt;&lt;/p&gt;&lt;p&gt;&lt;font style=&quot;font-size: 18px;&quot;&gt;- Reporting&lt;/font&gt;&lt;/p&gt;" style="text;html=1;strokeColor=#666666;fillColor=#f5f5f5;spacing=5;spacingTop=-20;whiteSpace=wrap;overflow=hidden;rounded=0;fontColor=#333333;" parent="1" vertex="1">
          <mxGeometry x="470" y="40" width="330" height="200" as="geometry" />
        </mxCell>
        <mxCell id="BA62NRj0ivqC6DWOesn4-3" value="Client" style="rounded=0;whiteSpace=wrap;html=1;fontSize=18;" parent="1" vertex="1">
          <mxGeometry x="40" y="430" width="120" height="60" as="geometry" />
        </mxCell>
        <mxCell id="BA62NRj0ivqC6DWOesn4-4" value="Client" style="rounded=0;whiteSpace=wrap;html=1;fontSize=18;" parent="1" vertex="1">
          <mxGeometry x="50" y="440" width="120" height="60" as="geometry" />
        </mxCell>
        <mxCell id="BA62NRj0ivqC6DWOesn4-7" value="" style="edgeStyle=orthogonalEdgeStyle;rounded=0;orthogonalLoop=1;jettySize=auto;html=1;fontSize=18;" parent="1" source="BA62NRj0ivqC6DWOesn4-5" target="BA62NRj0ivqC6DWOesn4-6" edge="1">
          <mxGeometry relative="1" as="geometry" />
        </mxCell>
        <mxCell id="BA62NRj0ivqC6DWOesn4-5" value="Client" style="rounded=0;whiteSpace=wrap;html=1;fontSize=18;" parent="1" vertex="1">
          <mxGeometry x="60" y="450" width="120" height="60" as="geometry" />
        </mxCell>
        <mxCell id="BA62NRj0ivqC6DWOesn4-9" value="" style="edgeStyle=orthogonalEdgeStyle;rounded=0;orthogonalLoop=1;jettySize=auto;html=1;fontSize=18;" parent="1" source="BA62NRj0ivqC6DWOesn4-6" target="BA62NRj0ivqC6DWOesn4-8" edge="1">
          <mxGeometry relative="1" as="geometry" />
        </mxCell>
        <mxCell id="BA62NRj0ivqC6DWOesn4-6" value="lb" style="whiteSpace=wrap;html=1;fontSize=18;rounded=0;" parent="1" vertex="1">
          <mxGeometry x="260" y="425" width="20" height="110" as="geometry" />
        </mxCell>
        <mxCell id="BA62NRj0ivqC6DWOesn4-15" value="" style="edgeStyle=orthogonalEdgeStyle;rounded=0;orthogonalLoop=1;jettySize=auto;html=1;fontSize=18;" parent="1" source="BA62NRj0ivqC6DWOesn4-8" target="BA62NRj0ivqC6DWOesn4-14" edge="1">
          <mxGeometry relative="1" as="geometry" />
        </mxCell>
        <mxCell id="BA62NRj0ivqC6DWOesn4-8" value="Notification Service" style="whiteSpace=wrap;html=1;fontSize=18;rounded=0;" parent="1" vertex="1">
          <mxGeometry x="330" y="450" width="120" height="60" as="geometry" />
        </mxCell>
        <mxCell id="BA62NRj0ivqC6DWOesn4-13" value="" style="edgeStyle=orthogonalEdgeStyle;rounded=0;orthogonalLoop=1;jettySize=auto;html=1;fontSize=18;" parent="1" source="BA62NRj0ivqC6DWOesn4-11" target="BA62NRj0ivqC6DWOesn4-8" edge="1">
          <mxGeometry relative="1" as="geometry" />
        </mxCell>
        <mxCell id="BA62NRj0ivqC6DWOesn4-11" value="Validates the incoming request. Generates the request Id and accepts the request.&amp;nbsp;" style="text;html=1;strokeColor=#82b366;fillColor=#d5e8d4;align=left;verticalAlign=middle;whiteSpace=wrap;rounded=0;fontSize=18;" parent="1" vertex="1">
          <mxGeometry x="490" y="445" width="330" height="70" as="geometry" />
        </mxCell>
        <mxCell id="BA62NRj0ivqC6DWOesn4-17" value="" style="edgeStyle=orthogonalEdgeStyle;rounded=0;orthogonalLoop=1;jettySize=auto;html=1;fontSize=18;" parent="1" source="BA62NRj0ivqC6DWOesn4-14" target="BA62NRj0ivqC6DWOesn4-16" edge="1">
          <mxGeometry relative="1" as="geometry" />
        </mxCell>
        <mxCell id="BA62NRj0ivqC6DWOesn4-14" value="Queue" style="strokeWidth=2;html=1;shape=mxgraph.flowchart.direct_data;whiteSpace=wrap;fontSize=18;" parent="1" vertex="1">
          <mxGeometry x="340" y="580" width="100" height="60" as="geometry" />
        </mxCell>
        <mxCell id="BA62NRj0ivqC6DWOesn4-21" style="edgeStyle=orthogonalEdgeStyle;rounded=0;orthogonalLoop=1;jettySize=auto;html=1;entryX=0.5;entryY=0;entryDx=0;entryDy=0;entryPerimeter=0;fontSize=18;" parent="1" source="BA62NRj0ivqC6DWOesn4-16" target="BA62NRj0ivqC6DWOesn4-20" edge="1">
          <mxGeometry relative="1" as="geometry" />
        </mxCell>
        <mxCell id="BA62NRj0ivqC6DWOesn4-23" value="" style="edgeStyle=orthogonalEdgeStyle;rounded=0;orthogonalLoop=1;jettySize=auto;html=1;fontSize=18;" parent="1" source="BA62NRj0ivqC6DWOesn4-16" target="BA62NRj0ivqC6DWOesn4-22" edge="1">
          <mxGeometry relative="1" as="geometry" />
        </mxCell>
        <mxCell id="BA62NRj0ivqC6DWOesn4-25" style="edgeStyle=orthogonalEdgeStyle;rounded=0;orthogonalLoop=1;jettySize=auto;html=1;fontSize=18;" parent="1" source="BA62NRj0ivqC6DWOesn4-16" target="BA62NRj0ivqC6DWOesn4-24" edge="1">
          <mxGeometry relative="1" as="geometry" />
        </mxCell>
        <mxCell id="BA62NRj0ivqC6DWOesn4-16" value="Request Consumer" style="whiteSpace=wrap;html=1;fontSize=18;strokeWidth=2;" parent="1" vertex="1">
          <mxGeometry x="330" y="720" width="120" height="60" as="geometry" />
        </mxCell>
        <mxCell id="BA62NRj0ivqC6DWOesn4-18" value="Checks for rate limiting:&lt;br&gt;&amp;nbsp; - User level rate limiting&lt;br&gt;&amp;nbsp; - Client level rate limiting&lt;br&gt;Also message prioritization" style="text;html=1;strokeColor=#82b366;fillColor=#d5e8d4;align=left;verticalAlign=middle;whiteSpace=wrap;rounded=0;fontSize=18;" parent="1" vertex="1">
          <mxGeometry x="480" y="702.5" width="360" height="95" as="geometry" />
        </mxCell>
        <mxCell id="BA62NRj0ivqC6DWOesn4-27" value="" style="edgeStyle=orthogonalEdgeStyle;rounded=0;orthogonalLoop=1;jettySize=auto;html=1;fontSize=18;" parent="1" source="BA62NRj0ivqC6DWOesn4-20" target="BA62NRj0ivqC6DWOesn4-26" edge="1">
          <mxGeometry relative="1" as="geometry" />
        </mxCell>
        <mxCell id="BA62NRj0ivqC6DWOesn4-20" value="SMS" style="strokeWidth=2;html=1;shape=mxgraph.flowchart.direct_data;whiteSpace=wrap;fontSize=18;" parent="1" vertex="1">
          <mxGeometry x="200" y="880" width="100" height="60" as="geometry" />
        </mxCell>
        <mxCell id="BA62NRj0ivqC6DWOesn4-29" value="" style="edgeStyle=orthogonalEdgeStyle;rounded=0;orthogonalLoop=1;jettySize=auto;html=1;fontSize=18;" parent="1" source="BA62NRj0ivqC6DWOesn4-22" target="BA62NRj0ivqC6DWOesn4-28" edge="1">
          <mxGeometry relative="1" as="geometry" />
        </mxCell>
        <mxCell id="BA62NRj0ivqC6DWOesn4-22" value="EMAIL" style="strokeWidth=2;html=1;shape=mxgraph.flowchart.direct_data;whiteSpace=wrap;fontSize=18;" parent="1" vertex="1">
          <mxGeometry x="340" y="880" width="100" height="60" as="geometry" />
        </mxCell>
        <mxCell id="BA62NRj0ivqC6DWOesn4-31" value="" style="edgeStyle=orthogonalEdgeStyle;rounded=0;orthogonalLoop=1;jettySize=auto;html=1;fontSize=18;" parent="1" source="BA62NRj0ivqC6DWOesn4-24" target="BA62NRj0ivqC6DWOesn4-30" edge="1">
          <mxGeometry relative="1" as="geometry" />
        </mxCell>
        <mxCell id="BA62NRj0ivqC6DWOesn4-24" value="Whatsapp" style="strokeWidth=2;html=1;shape=mxgraph.flowchart.direct_data;whiteSpace=wrap;fontSize=18;" parent="1" vertex="1">
          <mxGeometry x="500" y="880" width="130" height="60" as="geometry" />
        </mxCell>
        <mxCell id="BA62NRj0ivqC6DWOesn4-33" value="" style="edgeStyle=orthogonalEdgeStyle;rounded=0;orthogonalLoop=1;jettySize=auto;html=1;fontSize=18;" parent="1" source="BA62NRj0ivqC6DWOesn4-26" target="BA62NRj0ivqC6DWOesn4-32" edge="1">
          <mxGeometry relative="1" as="geometry" />
        </mxCell>
        <mxCell id="BA62NRj0ivqC6DWOesn4-26" value="SMS Handler" style="whiteSpace=wrap;html=1;fontSize=18;strokeWidth=2;" parent="1" vertex="1">
          <mxGeometry x="190" y="1020" width="120" height="60" as="geometry" />
        </mxCell>
        <mxCell id="BA62NRj0ivqC6DWOesn4-28" value="Email handler" style="whiteSpace=wrap;html=1;fontSize=18;strokeWidth=2;" parent="1" vertex="1">
          <mxGeometry x="330" y="1020" width="120" height="60" as="geometry" />
        </mxCell>
        <mxCell id="BA62NRj0ivqC6DWOesn4-30" value="Whatsapp Handler" style="whiteSpace=wrap;html=1;fontSize=18;strokeWidth=2;" parent="1" vertex="1">
          <mxGeometry x="505" y="1020" width="120" height="60" as="geometry" />
        </mxCell>
        <mxCell id="BA62NRj0ivqC6DWOesn4-35" value="" style="edgeStyle=orthogonalEdgeStyle;rounded=0;orthogonalLoop=1;jettySize=auto;html=1;fontSize=18;entryX=0;entryY=0.5;entryDx=0;entryDy=0;" parent="1" source="BA62NRj0ivqC6DWOesn4-32" target="BA62NRj0ivqC6DWOesn4-37" edge="1">
          <mxGeometry relative="1" as="geometry">
            <mxPoint x="370" y="1200" as="targetPoint" />
          </mxGeometry>
        </mxCell>
        <mxCell id="BA62NRj0ivqC6DWOesn4-42" value="" style="edgeStyle=orthogonalEdgeStyle;rounded=0;orthogonalLoop=1;jettySize=auto;html=1;fontSize=18;" parent="1" source="BA62NRj0ivqC6DWOesn4-32" target="BA62NRj0ivqC6DWOesn4-41" edge="1">
          <mxGeometry relative="1" as="geometry" />
        </mxCell>
        <mxCell id="BA62NRj0ivqC6DWOesn4-43" value="Fail" style="edgeLabel;html=1;align=center;verticalAlign=middle;resizable=0;points=[];fontSize=18;" parent="BA62NRj0ivqC6DWOesn4-42" vertex="1" connectable="0">
          <mxGeometry x="-0.2167" y="1" relative="1" as="geometry">
            <mxPoint y="1" as="offset" />
          </mxGeometry>
        </mxCell>
        <mxCell id="BA62NRj0ivqC6DWOesn4-47" value="" style="edgeStyle=orthogonalEdgeStyle;rounded=0;orthogonalLoop=1;jettySize=auto;html=1;fontSize=18;" parent="1" source="BA62NRj0ivqC6DWOesn4-32" target="BA62NRj0ivqC6DWOesn4-46" edge="1">
          <mxGeometry relative="1" as="geometry" />
        </mxCell>
        <mxCell id="BA62NRj0ivqC6DWOesn4-32" value="Dispatch" style="strokeWidth=2;html=1;shape=mxgraph.flowchart.decision;whiteSpace=wrap;fontSize=18;" parent="1" vertex="1">
          <mxGeometry x="200" y="1150" width="100" height="100" as="geometry" />
        </mxCell>
        <mxCell id="BA62NRj0ivqC6DWOesn4-36" value="Success" style="text;html=1;align=center;verticalAlign=middle;resizable=0;points=[];autosize=1;strokeColor=none;fillColor=none;fontSize=18;" parent="1" vertex="1">
          <mxGeometry x="300" y="1160" width="90" height="40" as="geometry" />
        </mxCell>
        <mxCell id="BA62NRj0ivqC6DWOesn4-37" value="Request DB" style="shape=datastore;whiteSpace=wrap;html=1;fontSize=18;" parent="1" vertex="1">
          <mxGeometry x="390" y="1150" width="100" height="100" as="geometry" />
        </mxCell>
        <mxCell id="BA62NRj0ivqC6DWOesn4-45" style="edgeStyle=orthogonalEdgeStyle;rounded=0;orthogonalLoop=1;jettySize=auto;html=1;entryX=0;entryY=0.5;entryDx=0;entryDy=0;fontSize=18;" parent="1" source="BA62NRj0ivqC6DWOesn4-41" target="BA62NRj0ivqC6DWOesn4-26" edge="1">
          <mxGeometry relative="1" as="geometry">
            <Array as="points">
              <mxPoint x="170" y="1350" />
              <mxPoint x="170" y="1050" />
            </Array>
          </mxGeometry>
        </mxCell>
        <mxCell id="BA62NRj0ivqC6DWOesn4-41" value="SMS Retry Queue" style="strokeWidth=2;html=1;shape=mxgraph.flowchart.direct_data;whiteSpace=wrap;fontSize=18;" parent="1" vertex="1">
          <mxGeometry x="200" y="1310" width="100" height="60" as="geometry" />
        </mxCell>
        <mxCell id="BA62NRj0ivqC6DWOesn4-44" value="Configurable number of retries" style="text;html=1;strokeColor=none;fillColor=none;align=center;verticalAlign=middle;whiteSpace=wrap;rounded=0;fontSize=18;" parent="1" vertex="1">
          <mxGeometry x="310" y="1320" width="150" height="40" as="geometry" />
        </mxCell>
        <mxCell id="BA62NRj0ivqC6DWOesn4-46" value="SMS Error Queue" style="strokeWidth=2;html=1;shape=mxgraph.flowchart.direct_data;whiteSpace=wrap;fontSize=18;" parent="1" vertex="1">
          <mxGeometry x="40" y="1170" width="100" height="60" as="geometry" />
        </mxCell>
        <mxCell id="BA62NRj0ivqC6DWOesn4-48" value="Store error status in DB" style="text;html=1;strokeColor=none;fillColor=none;align=center;verticalAlign=middle;whiteSpace=wrap;rounded=0;fontSize=18;" parent="1" vertex="1">
          <mxGeometry x="40" y="1230" width="100" height="70" as="geometry" />
        </mxCell>
      </root>
    </mxGraphModel>
  </diagram>
</mxfile>
